<!-- Generated by IcoMoon.io -->
<svg version="1.1" xmlns="http://www.w3.org/2000/svg" width="18" height="18" viewBox="0 0 18 18">
<title></title>
<g>
<path d="M17.342 0.658c0.813 0.813 0.874 2.090 0.175 2.949l-0.15 0.166-5.326 5.325 4.712 4.711c0.867 0.867 0.911 2.229 0.098 3.043-0.762 0.762-2.007 0.771-2.874 0.055l-0.168-0.153-4.711-4.712-5.325 5.326c-0.853 0.853-2.248 0.842-3.115-0.026-0.813-0.813-0.874-2.090-0.175-2.949l0.15-0.166 5.325-5.326-4.711-4.71c-0.867-0.867-0.911-2.229-0.098-3.043 0.762-0.762 2.007-0.771 2.874-0.055l0.168 0.153 4.71 4.711 5.326-5.325c0.853-0.853 2.248-0.842 3.115 0.026z"></path>
</g>
</svg>
