<?xml version="1.0" encoding="UTF-8"?>
<svg width="18px" height="18px" viewBox="0 0 18 18" version="1.1" xmlns="http://www.w3.org/2000/svg" xmlns:xlink="http://www.w3.org/1999/xlink">
    <!-- Generator: sketchtool 63.1 (101010) - https://sketch.com -->
    <title>3B7F3626-1679-4EFD-9A88-7CFC6326CF77</title>
    <desc>Created with sketchtool.</desc>
    <g id="[UI]PROVEEDOR-/-CARGAR-INVENTARIO" stroke="none" stroke-width="1" fill="none" fill-rule="evenodd">
        <g id="04_[Inventario]-Catalogo-inventario" transform="translate(-584.000000, -298.000000)" fill="#0D4D64" stroke="#0D4D64">
            <g id="Btn/buscador" transform="translate(249.000000, 287.000000)">
                <g id="Ico/lupa" transform="translate(332.000000, 8.000000)">
                    <g id="Group">
                        <g id="ic_lupa" transform="translate(4.000000, 4.000000)">
                            <path d="M15.5911837,14.2685714 L11.9400816,10.6169796 C13.8466939,8.0315102 13.6228571,4.32146939 11.3012245,2 C10.050449,0.749714286 8.38791837,0.0610612245 6.6197551,0.0610612245 C4.85142857,0.0610612245 3.18906122,0.749714286 1.93910204,2 C0.688653061,3.25061224 -8.97060204e-14,4.91281633 -8.97060204e-14,6.68081633 C-8.97060204e-14,8.44897959 0.688653061,10.1113469 1.93910204,11.3621224 C3.18922449,12.6125714 4.85159184,13.3012245 6.62008163,13.3012245 C8.05126531,13.3012245 9.42285714,12.8445714 10.5572245,12.0022857 L14.2075102,15.6519184 C14.3923265,15.836898 14.6380408,15.9386122 14.8992653,15.9386122 C15.1613061,15.9386122 15.4075102,15.8362449 15.5902041,15.6527347 C15.7753469,15.4680816 15.8773878,15.2223673 15.8775512,14.9608163 C15.8777143,14.6992653 15.776,14.4533878 15.5911837,14.2685714 Z M6.6197551,2.01779592 C7.86514286,2.01779592 9.03608163,2.50285714 9.91706122,3.38383673 C10.7962449,4.26285714 11.2804898,5.43379592 11.2804898,6.68081633 C11.2804898,7.92783673 10.7962449,9.09893878 9.91689796,9.97812245 C9.0362449,10.8589388 7.86530612,11.344 6.6197551,11.344 C5.37436735,11.344 4.20342857,10.8589388 3.32244898,9.97812245 C2.44163265,9.09763265 1.95657143,7.92669388 1.95657143,6.68081633 C1.95657143,5.43542857 2.44163265,4.2644898 3.32244898,3.38383673 C4.20359184,2.50302041 5.37453061,2.01779592 6.6197551,2.01779592 Z" id="Shape"></path>
                        </g>
                    </g>
                </g>
            </g>
        </g>
    </g>
</svg>