<?xml version="1.0" encoding="UTF-8"?>
<svg width="121px" height="124px" viewBox="0 0 121 124" version="1.1" xmlns="http://www.w3.org/2000/svg" xmlns:xlink="http://www.w3.org/1999/xlink">
    <!-- Generator: sketchtool 63.1 (101010) - https://sketch.com -->
    <title>20F1C7B2-7D74-4D71-BB7E-2022C7FBE0F0</title>
    <desc>Created with sketchtool.</desc>
    <g id="[UI]PROVEEDOR-/-CARGAR-INVENTARIO" stroke="none" stroke-width="1" fill="none" fill-rule="evenodd">
        <g id="01_[Inventario]-Primera-carga" transform="translate(-685.000000, -192.000000)">
            <g id="Group-3" transform="translate(683.000000, 190.000000)">
                <g id="Group-2" transform="translate(0.000000, 0.000000)" fill="#E6EBED">
                    <g id="Group-4">
                        <path d="M96.1538462,17.6923077 C99.5525215,17.6923077 102.307692,20.4474785 102.307692,23.8461538 L102.307692,96.1538462 C102.307692,99.5525215 99.5525215,102.307692 96.1538462,102.307692 L23.8461538,102.307692 C20.4474785,102.307692 17.6923077,99.5525215 17.6923077,96.1538462 L17.6923077,23.8461538 C17.6923077,20.4474785 20.4474785,17.6923077 23.8461538,17.6923077" id="Path" transform="translate(60.000000, 60.000000) rotate(-315.000000) translate(-60.000000, -60.000000) "></path>
                    </g>
                </g>
                <g id="noun_File_1289079" transform="translate(38.000000, 26.000000)" fill-rule="nonzero">
                    <g id="Group">
                        <polygon id="Path" fill="#0D4D64" points="18.3333333 1.33333333 0.333333333 35.5 18.3333333 22.5"></polygon>
                        <path d="M61.6666667,3.33333333 C61.6666667,1.5 60.1666667,-7.10542736e-15 58.3333333,-7.10542736e-15 L21.6666667,-7.10542736e-15 L21.6666667,24.1666667 L6.03961325e-13,40 L6.03961325e-13,88.3333333 C6.03961325e-13,90.1666667 1.5,91.6666667 3.33333333,91.6666667 L55.3333333,91.6666667 C53.6666667,88.6666667 52.5,84.8333333 52,80 L36,80 L61.6666667,54 L61.6666667,3.33333333 Z M30,71.6666667 L13.3333333,71.6666667 L13.3333333,68.3333333 L30,68.3333333 L30,71.6666667 Z M36.6666667,61.6666667 L13.3333333,61.6666667 L13.3333333,58.3333333 L36.6666667,58.3333333 L36.6666667,61.6666667 Z M48.3333333,51.6666667 L13.3333333,51.6666667 L13.3333333,48.3333333 L48.3333333,48.3333333 L48.3333333,51.6666667 Z M48.3333333,41.6666667 L18.3333333,41.6666667 L18.3333333,38.3333333 L48.3333333,38.3333333 L48.3333333,41.6666667 Z M48.3333333,31.6666667 L28.3333333,31.6666667 L28.3333333,28.3333333 L48.3333333,28.3333333 L48.3333333,31.6666667 Z" id="Shape" fill="#0D4D64"></path>
                        <path d="M75,100 C71,100 67.3333333,99 64.1666667,96.8333333 C60.1666667,94.1666667 55.5,88.3333333 55,76.6666667 L46.3333333,76.6666667 L61.6666667,59.1666667 L77,76.6666667 L68.3333333,76.6666667 C68.5,82.3333333 69.6666667,86.8333333 72,89.8333333 C74.5,93.3333333 78.1666667,95 83.3333333,95 L85,95 L85,97.8333333 L84,98.3333333 C81,99.3333333 78,100 75,100 Z" id="Path" fill="#EFA51E"></path>
                    </g>
                </g>
            </g>
        </g>
    </g>
</svg>