<?xml version="1.0" encoding="UTF-8"?>
<svg width="151px" height="154px" viewBox="0 0 151 154" version="1.1" xmlns="http://www.w3.org/2000/svg" xmlns:xlink="http://www.w3.org/1999/xlink">
    <!-- Generator: sketchtool 63.1 (101010) - https://sketch.com -->
    <title>02BCF64F-807B-4CED-94E6-CBACB6B3F944</title>
    <desc>Created with sketchtool.</desc>
    <g id="[UI]PROVEEDOR-/-CARGAR-INVENTARIO" stroke="none" stroke-width="1" fill="none" fill-rule="evenodd">
        <g id="02_D[Inventario]Cargar-archivo-Error" transform="translate(-632.000000, -188.000000)">
            <g id="Group-3-Copy" transform="translate(629.000000, 185.000000)">
                <g id="Group-2" transform="translate(0.000000, 0.000000)" fill="#E6EBED">
                    <g id="Group-4">
                        <path d="M119.810745,22.045177 C124.045602,22.045177 127.478632,25.4782073 127.478632,29.7130647 L127.478632,119.810745 C127.478632,124.045602 124.045602,127.478632 119.810745,127.478632 L29.7130647,127.478632 C25.4782073,127.478632 22.045177,124.045602 22.045177,119.810745 L22.045177,29.7130647 C22.045177,25.4782073 25.4782073,22.045177 29.7130647,22.045177" id="Path" transform="translate(74.761905, 74.761905) rotate(-315.000000) translate(-74.761905, -74.761905) "></path>
                    </g>
                </g>
                <g id="noun_File_1289079" transform="translate(47.349206, 32.396825)" fill-rule="nonzero">
                    <g id="Group">
                        <polygon id="Path" fill="#0D4D64" points="22.8439153 1.66137566 0.415343915 44.234127 22.8439153 28.0357143"></polygon>
                        <path d="M76.8386243,4.15343915 C76.8386243,1.86904762 74.9695767,-8.85358806e-15 72.6851852,-8.85358806e-15 L26.9973545,-8.85358806e-15 L26.9973545,30.1124339 L7.52554985e-13,49.8412698 L7.52554985e-13,110.066138 C7.52554985e-13,112.350529 1.86904762,114.219577 4.15343915,114.219577 L68.9470899,114.219577 C66.8703704,110.481481 65.4166667,105.705026 64.7936508,99.6825397 L44.8571429,99.6825397 L76.8386243,67.2857143 L76.8386243,4.15343915 Z M37.3809524,89.2989418 L16.6137566,89.2989418 L16.6137566,85.1455026 L37.3809524,85.1455026 L37.3809524,89.2989418 Z M45.6878307,76.8386243 L16.6137566,76.8386243 L16.6137566,72.6851852 L45.6878307,72.6851852 L45.6878307,76.8386243 Z M60.2248677,64.3783069 L16.6137566,64.3783069 L16.6137566,60.2248677 L60.2248677,60.2248677 L60.2248677,64.3783069 Z M60.2248677,51.9179894 L22.8439153,51.9179894 L22.8439153,47.7645503 L60.2248677,47.7645503 L60.2248677,51.9179894 Z M60.2248677,39.457672 L35.3042328,39.457672 L35.3042328,35.3042328 L60.2248677,35.3042328 L60.2248677,39.457672 Z" id="Shape" fill="#0D4D64"></path>
                        <path d="M93.452381,124.603175 C88.468254,124.603175 83.8994709,123.357143 79.9537037,120.657407 C74.9695767,117.334656 69.1547619,110.066138 68.531746,95.5291005 L57.7328042,95.5291005 L76.8386243,73.723545 L95.9444444,95.5291005 L85.1455026,95.5291005 C85.3531746,102.589947 86.8068783,108.19709 89.7142857,111.935185 C92.8293651,116.296296 97.3981481,118.373016 103.835979,118.373016 L105.912698,118.373016 L105.912698,121.903439 L104.666667,122.526455 C100.928571,123.772487 97.1904762,124.603175 93.452381,124.603175 Z" id="Path" fill="#E24D56"></path>
                    </g>
                </g>
            </g>
        </g>
    </g>
</svg>