<!-- Generated by IcoMoon.io -->
<svg version="1.1" xmlns="http://www.w3.org/2000/svg" width="18" height="18" viewBox="0 0 18 18">
<title></title>
<g>
<path d="M9 18c-4.971 0-9-4.029-9-9s4.029-9 9-9v0c4.971 0 9 4.029 9 9s-4.029 9-9 9v0zM9 1.8c-3.976 0-7.2 3.224-7.2 7.2s3.224 7.2 7.2 7.2v0c-1.988 0-3.6-1.612-3.6-3.6s1.612-3.6 3.6-3.6v0c1.988 0 3.6-1.612 3.6-3.6s-1.612-3.6-3.6-3.6v0zM9 13.5c0.497 0 0.9-0.403 0.9-0.9s-0.403-0.9-0.9-0.9v0c-0.497 0-0.9 0.403-0.9 0.9s0.403 0.9 0.9 0.9v0zM9 6.3c-0.497 0-0.9-0.403-0.9-0.9s0.403-0.9 0.9-0.9v0c0.497 0 0.9 0.403 0.9 0.9s-0.403 0.9-0.9 0.9v0z"></path>
</g>
</svg>
